<svg width="1440" height="26" viewBox="0 0 1440 26" fill="none" xmlns="http://www.w3.org/2000/svg">
<g opacity="0.25">
<path d="M0 6.60352C34.2864 6.60352 34.2863 19.2449 68.5727 19.2449C102.859 19.2449 102.859 6.60352 137.132 6.60352C171.405 6.60352 171.418 19.2449 205.705 19.2449C239.991 19.2449 239.991 6.60352 274.277 6.60352C308.564 6.60352 308.564 19.2449 342.837 19.2449C377.11 19.2449 377.123 6.60352 411.409 6.60352C445.696 6.60352 445.696 19.2449 479.982 19.2449C514.268 19.2449 514.268 6.60352 548.555 6.60352C582.841 6.60352 582.828 19.2449 617.114 19.2449C651.4 19.2449 651.4 6.60352 685.687 6.60352C719.973 6.60352 719.973 19.2449 754.246 19.2449C788.519 19.2449 788.532 6.60352 822.819 6.60352C857.105 6.60352 857.105 19.2449 891.405 19.2449C925.705 19.2449 925.678 6.60352 959.964 6.60352C994.251 6.60352 994.264 19.2449 1028.55 19.2449C1062.84 19.2449 1062.84 6.60352 1097.11 6.60352C1131.38 6.60352 1131.4 19.2449 1165.68 19.2449C1199.97 19.2449 1199.97 6.60352 1234.27 6.60352C1268.57 6.60352 1268.55 19.2449 1302.84 19.2449C1337.13 19.2449 1337.13 6.60352 1371.41 6.60352C1405.7 6.60352 1405.71 19.2449 1440 19.2449" fill="black"/>
<path d="M0 6.60352C34.2864 6.60352 34.2863 19.2449 68.5727 19.2449C102.859 19.2449 102.859 6.60352 137.132 6.60352C171.405 6.60352 171.418 19.2449 205.705 19.2449C239.991 19.2449 239.991 6.60352 274.277 6.60352C308.564 6.60352 308.564 19.2449 342.837 19.2449C377.11 19.2449 377.123 6.60352 411.409 6.60352C445.696 6.60352 445.696 19.2449 479.982 19.2449C514.268 19.2449 514.268 6.60352 548.555 6.60352C582.841 6.60352 582.828 19.2449 617.114 19.2449C651.4 19.2449 651.4 6.60352 685.687 6.60352C719.973 6.60352 719.973 19.2449 754.246 19.2449C788.519 19.2449 788.532 6.60352 822.819 6.60352C857.105 6.60352 857.105 19.2449 891.405 19.2449C925.705 19.2449 925.678 6.60352 959.964 6.60352C994.251 6.60352 994.264 19.2449 1028.55 19.2449C1062.84 19.2449 1062.84 6.60352 1097.11 6.60352C1131.38 6.60352 1131.4 19.2449 1165.68 19.2449C1199.97 19.2449 1199.97 6.60352 1234.27 6.60352C1268.57 6.60352 1268.55 19.2449 1302.84 19.2449C1337.13 19.2449 1337.13 6.60352 1371.41 6.60352C1405.7 6.60352 1405.71 19.2449 1440 19.2449" stroke="black" stroke-width="13" stroke-miterlimit="10"/>
</g>
</svg>
